<mxfile host="app.diagrams.net" modified="2023-05-06T07:44:05.500Z" agent="Mozilla/5.0 (Windows NT 10.0; Win64; x64) AppleWebKit/537.36 (KHTML, like Gecko) Chrome/112.0.0.0 Safari/537.36" etag="NyW9kHHM2fQ5xg-3vBsJ" version="21.2.2" type="github">
  <diagram name="Page-1" id="obNmWy9aIsWG7gp1YsI2">
    <mxGraphModel dx="1434" dy="764" grid="1" gridSize="10" guides="1" tooltips="1" connect="1" arrows="1" fold="1" page="1" pageScale="1" pageWidth="850" pageHeight="1100" math="0" shadow="0">
      <root>
        <mxCell id="0" />
        <mxCell id="1" parent="0" />
        <mxCell id="gJmWW0kTYwEwNg_Bcr7h-1" style="edgeStyle=orthogonalEdgeStyle;rounded=0;orthogonalLoop=1;jettySize=auto;html=1;" edge="1" parent="1" source="gJmWW0kTYwEwNg_Bcr7h-2">
          <mxGeometry relative="1" as="geometry">
            <mxPoint x="216" y="190" as="targetPoint" />
          </mxGeometry>
        </mxCell>
        <mxCell id="gJmWW0kTYwEwNg_Bcr7h-2" value="web of science&lt;br&gt;n= 1420" style="rounded=1;whiteSpace=wrap;html=1;fontSize=12;glass=0;strokeWidth=1;shadow=0;" vertex="1" parent="1">
          <mxGeometry x="156" y="80" width="120" height="60" as="geometry" />
        </mxCell>
        <mxCell id="gJmWW0kTYwEwNg_Bcr7h-3" value="included in qualitative synthesis&amp;nbsp;" style="rounded=1;whiteSpace=wrap;html=1;fontSize=12;glass=0;strokeWidth=1;shadow=0;" vertex="1" parent="1">
          <mxGeometry x="156" y="480" width="120" height="70" as="geometry" />
        </mxCell>
        <mxCell id="gJmWW0kTYwEwNg_Bcr7h-4" value="" style="rounded=1;whiteSpace=wrap;html=1;fontSize=12;glass=0;strokeWidth=1;shadow=0;" vertex="1" parent="1">
          <mxGeometry x="354" y="280" width="120" height="40" as="geometry" />
        </mxCell>
        <mxCell id="gJmWW0kTYwEwNg_Bcr7h-5" style="edgeStyle=orthogonalEdgeStyle;rounded=0;orthogonalLoop=1;jettySize=auto;html=1;" edge="1" parent="1" source="gJmWW0kTYwEwNg_Bcr7h-7" target="gJmWW0kTYwEwNg_Bcr7h-9">
          <mxGeometry relative="1" as="geometry" />
        </mxCell>
        <mxCell id="gJmWW0kTYwEwNg_Bcr7h-6" style="edgeStyle=orthogonalEdgeStyle;rounded=0;orthogonalLoop=1;jettySize=auto;html=1;" edge="1" parent="1" source="gJmWW0kTYwEwNg_Bcr7h-7" target="gJmWW0kTYwEwNg_Bcr7h-15">
          <mxGeometry relative="1" as="geometry" />
        </mxCell>
        <mxCell id="gJmWW0kTYwEwNg_Bcr7h-7" value="title&lt;br&gt;n=" style="rounded=1;whiteSpace=wrap;html=1;fontSize=12;glass=0;strokeWidth=1;shadow=0;" vertex="1" parent="1">
          <mxGeometry x="156" y="190" width="120" height="60" as="geometry" />
        </mxCell>
        <mxCell id="gJmWW0kTYwEwNg_Bcr7h-8" style="edgeStyle=orthogonalEdgeStyle;rounded=0;orthogonalLoop=1;jettySize=auto;html=1;entryX=0;entryY=0.5;entryDx=0;entryDy=0;" edge="1" parent="1" target="gJmWW0kTYwEwNg_Bcr7h-4">
          <mxGeometry relative="1" as="geometry">
            <mxPoint x="280" y="300" as="sourcePoint" />
          </mxGeometry>
        </mxCell>
        <mxCell id="gJmWW0kTYwEwNg_Bcr7h-9" value="" style="rounded=1;whiteSpace=wrap;html=1;fontSize=12;glass=0;strokeWidth=1;shadow=0;" vertex="1" parent="1">
          <mxGeometry x="354" y="200" width="120" height="40" as="geometry" />
        </mxCell>
        <mxCell id="gJmWW0kTYwEwNg_Bcr7h-10" value="identification" style="rounded=0;whiteSpace=wrap;html=1;rotation=-90;" vertex="1" parent="1">
          <mxGeometry x="10" y="70" width="120" height="60" as="geometry" />
        </mxCell>
        <mxCell id="gJmWW0kTYwEwNg_Bcr7h-11" value="screening" style="rounded=0;whiteSpace=wrap;html=1;rotation=-90;" vertex="1" parent="1">
          <mxGeometry y="240" width="140" height="60" as="geometry" />
        </mxCell>
        <mxCell id="gJmWW0kTYwEwNg_Bcr7h-12" value="Eligibility&lt;br&gt;" style="rounded=0;whiteSpace=wrap;html=1;rotation=-90;" vertex="1" parent="1">
          <mxGeometry x="25" y="390" width="90" height="60" as="geometry" />
        </mxCell>
        <mxCell id="gJmWW0kTYwEwNg_Bcr7h-13" value="" style="rounded=1;whiteSpace=wrap;html=1;fontSize=12;glass=0;strokeWidth=1;shadow=0;" vertex="1" parent="1">
          <mxGeometry x="340" y="480" width="120" height="40" as="geometry" />
        </mxCell>
        <mxCell id="gJmWW0kTYwEwNg_Bcr7h-14" style="edgeStyle=orthogonalEdgeStyle;rounded=0;orthogonalLoop=1;jettySize=auto;html=1;" edge="1" parent="1" source="gJmWW0kTYwEwNg_Bcr7h-15" target="gJmWW0kTYwEwNg_Bcr7h-17">
          <mxGeometry relative="1" as="geometry" />
        </mxCell>
        <mxCell id="gJmWW0kTYwEwNg_Bcr7h-15" value="abstract&lt;br&gt;n=254" style="rounded=1;whiteSpace=wrap;html=1;fontSize=12;glass=0;strokeWidth=1;shadow=0;" vertex="1" parent="1">
          <mxGeometry x="156" y="280" width="120" height="60" as="geometry" />
        </mxCell>
        <mxCell id="gJmWW0kTYwEwNg_Bcr7h-16" style="edgeStyle=orthogonalEdgeStyle;rounded=0;orthogonalLoop=1;jettySize=auto;html=1;" edge="1" parent="1" source="gJmWW0kTYwEwNg_Bcr7h-17" target="gJmWW0kTYwEwNg_Bcr7h-18">
          <mxGeometry relative="1" as="geometry" />
        </mxCell>
        <mxCell id="gJmWW0kTYwEwNg_Bcr7h-17" value="included in synthesis (paper relevenet)&lt;br&gt;n=148" style="rounded=1;whiteSpace=wrap;html=1;fontSize=12;glass=0;strokeWidth=1;shadow=0;" vertex="1" parent="1">
          <mxGeometry x="156" y="370" width="120" height="70" as="geometry" />
        </mxCell>
        <mxCell id="gJmWW0kTYwEwNg_Bcr7h-18" value="excluded&lt;br&gt;n=108" style="rounded=1;whiteSpace=wrap;html=1;fontSize=12;glass=0;strokeWidth=1;shadow=0;" vertex="1" parent="1">
          <mxGeometry x="354" y="385" width="120" height="40" as="geometry" />
        </mxCell>
        <mxCell id="gJmWW0kTYwEwNg_Bcr7h-19" value="Included" style="rounded=0;whiteSpace=wrap;html=1;rotation=-90;" vertex="1" parent="1">
          <mxGeometry x="35" y="485" width="70" height="60" as="geometry" />
        </mxCell>
      </root>
    </mxGraphModel>
  </diagram>
</mxfile>
